HIERARCHY
ROOT hip
{
  OFFSET 0 0 0
  CHANNELS 6 Xposition Yposition Zposition Zrotation Yrotation Xrotation
  JOINT abdomen
  {
    OFFSET 0 20.6881 -0.73152
    CHANNELS 3 Zrotation Xrotation Yrotation
    JOINT chest
    {
      OFFSET 0 11.7043 -0.48768
      CHANNELS 3 Zrotation Xrotation Yrotation
      JOINT neck
      {
        OFFSET 0 22.1894 -2.19456
        CHANNELS 3 Zrotation Xrotation Yrotation
        JOINT head
        {
          OFFSET -0.24384 7.07133 1.2192
          CHANNELS 3 Zrotation Xrotation Yrotation
          JOINT leftEye
          {
            OFFSET 4.14528 8.04674 8.04672
            CHANNELS 3 Zrotation Xrotation Yrotation
            End Site
            {
              OFFSET 1 0 0
            }
          }
          JOINT rightEye
          {
            OFFSET -3.6576 8.04674 8.04672
            CHANNELS 3 Zrotation Xrotation Yrotation
            End Site
            {
              OFFSET 1 0 0
            }
          }
        }
      }
      JOINT rCollar
      {
        OFFSET -2.68224 19.2634 -4.8768
        CHANNELS 3 Zrotation Xrotation Yrotation
        JOINT rShldr
        {
          OFFSET -8.77824 -1.95073 1.46304
          CHANNELS 3 Zrotation Xrotation Yrotation
          JOINT rForeArm
          {
            OFFSET -28.1742 -1.7115 0.48768
            CHANNELS 3 Zrotation Xrotation Yrotation
            JOINT rHand
            {
              OFFSET -22.5879 0.773209 7.07136
              CHANNELS 3 Zrotation Xrotation Yrotation
              JOINT rThumb1
              {
                OFFSET -1.2192 -0.487915 3.41376
                CHANNELS 3 Zrotation Xrotation Yrotation
                JOINT rThumb2
                {
                  OFFSET -3.37035 -0.52449 3.41376
                  CHANNELS 3 Zrotation Xrotation Yrotation
                  End Site
                  {
                    OFFSET -1.78271 -1.18214 1.43049
                  }
                }
              }
              JOINT rIndex1
              {
                OFFSET -7.75947 0.938293 5.60832
                CHANNELS 3 Zrotation Xrotation Yrotation
                JOINT rIndex2
                {
                  OFFSET -2.54057 -0.884171 1.56538
                  CHANNELS 3 Zrotation Xrotation Yrotation
                  End Site
                  {
                    OFFSET -1.62519 -0.234802 1.16502
                  }
                }
              }
              JOINT rMid1
              {
                OFFSET -8.24714 1.18213 3.41376
                CHANNELS 3 Zrotation Xrotation Yrotation
                JOINT rMid2
                {
                  OFFSET -3.10165 -0.590103 1.0647
                  CHANNELS 3 Zrotation Xrotation Yrotation
                  End Site
                  {
                    OFFSET -2.48547 -0.328903 0.83742
                  }
                }
              }
              JOINT rRing1
              {
                OFFSET -8.82822 0.546677 1.51678
                CHANNELS 3 Zrotation Xrotation Yrotation
                JOINT rRing2
                {
                  OFFSET -2.60934 -0.819778 -0.0198488
                  CHANNELS 3 Zrotation Xrotation Yrotation
                  End Site
                  {
                    OFFSET -2.33842 -0.294052 0.168128
                  }
                }
              }
              JOINT rPinky1
              {
                OFFSET -8.27202 -0.0477905 -0.4584
                CHANNELS 3 Zrotation Xrotation Yrotation
                JOINT rPinky2
                {
                  OFFSET -1.82734 -0.647385 -0.700984
                  CHANNELS 3 Zrotation Xrotation Yrotation
                  End Site
                  {
                    OFFSET -1.69225 -0.51767 -0.607171
                  }
                }
              }
            }
          }
        }
      }
      JOINT lCollar
      {
        OFFSET 2.68224 19.2634 -4.8768
        CHANNELS 3 Zrotation Xrotation Yrotation
        JOINT lShldr
        {
          OFFSET 8.77824 -1.95073 1.46304
          CHANNELS 3 Zrotation Xrotation Yrotation
          JOINT lForeArm
          {
            OFFSET 28.1742 -1.7115 0.48768
            CHANNELS 3 Zrotation Xrotation Yrotation
            JOINT lHand
            {
              OFFSET 22.5879 0.773209 7.07136
              CHANNELS 3 Zrotation Xrotation Yrotation
              JOINT lThumb1
              {
                OFFSET 1.2192 -0.487915 3.41376
                CHANNELS 3 Zrotation Xrotation Yrotation
                JOINT lThumb2
                {
                  OFFSET 3.37035 -0.52449 3.41376
                  CHANNELS 3 Zrotation Xrotation Yrotation
                  End Site
                  {
                    OFFSET 1.78271 -1.18214 1.43049
                  }
                }
              }
              JOINT lIndex1
              {
                OFFSET 7.75947 0.938293 5.60832
                CHANNELS 3 Zrotation Xrotation Yrotation
                JOINT lIndex2
                {
                  OFFSET 2.54057 -0.884171 1.56538
                  CHANNELS 3 Zrotation Xrotation Yrotation
                  End Site
                  {
                    OFFSET 1.62519 -0.234802 1.16502
                  }
                }
              }
              JOINT lMid1
              {
                OFFSET 8.24714 1.18213 3.41376
                CHANNELS 3 Zrotation Xrotation Yrotation
                JOINT lMid2
                {
                  OFFSET 3.10165 -0.590103 1.0647
                  CHANNELS 3 Zrotation Xrotation Yrotation
                  End Site
                  {
                    OFFSET 2.48547 -0.328903 0.83742
                  }
                }
              }
              JOINT lRing1
              {
                OFFSET 8.82822 0.546677 1.51678
                CHANNELS 3 Zrotation Xrotation Yrotation
                JOINT lRing2
                {
                  OFFSET 2.60934 -0.819778 -0.0198488
                  CHANNELS 3 Zrotation Xrotation Yrotation
                  End Site
                  {
                    OFFSET 2.33842 -0.294052 0.168128
                  }
                }
              }
              JOINT lPinky1
              {
                OFFSET 8.27202 -0.0477905 -0.4584
                CHANNELS 3 Zrotation Xrotation Yrotation
                JOINT lPinky2
                {
                  OFFSET 1.82734 -0.647385 -0.700984
                  CHANNELS 3 Zrotation Xrotation Yrotation
                  End Site
                  {
                    OFFSET 1.69225 -0.51767 -0.607171
                  }
                }
              }
            }
          }
        }
      }
    }
  }
  JOINT rButtock
  {
    OFFSET -8.77824 4.35084 1.2192
    CHANNELS 3 Zrotation Xrotation Yrotation
    JOINT rThigh
    {
      OFFSET 0 -1.70687 -2.19456
      CHANNELS 3 Zrotation Xrotation Yrotation
      JOINT rShin
      {
        OFFSET 0 -36.8199 0.73152
        CHANNELS 3 Zrotation Xrotation Yrotation
        JOINT rFoot
        {
          OFFSET 0.73152 -45.1104 -5.12064
          CHANNELS 3 Zrotation Xrotation Yrotation
          End Site
          {
            OFFSET -1.1221 -3.69964 12.103
          }
        }
      }
    }
  }
  JOINT lButtock
  {
    OFFSET 8.77824 4.35084 1.2192
    CHANNELS 3 Zrotation Xrotation Yrotation
    JOINT lThigh
    {
      OFFSET 0 -1.70687 -2.19456
      CHANNELS 3 Zrotation Xrotation Yrotation
      JOINT lShin
      {
        OFFSET 0 -36.8199 0.73152
        CHANNELS 3 Zrotation Xrotation Yrotation
        JOINT lFoot
        {
          OFFSET -0.73152 -45.1104 -5.12064
          CHANNELS 3 Zrotation Xrotation Yrotation
          End Site
          {
            OFFSET 1.1221 -3.69964 12.103
          }
        }
      }
    }
  }
}
MOTION
Frames:	9
Frame Time:	0.00833333
-1.73029 0.473101 13.728734 -20.657421 -26.755413 11.673941 17.034433 10.542138 12.891931 -1.398665 -6.925065 3.509186 -2.188605 14.500263 2.509454 6.112033 -25.215582 6.189549 -0.060686 0.23199 -0.126243 0.17248 -0.084741 -0.059236 -0.061547 -0.121254 -0.09127 69.152794 44.692158 -10.710311 -21.588812 -16.011251 43.891613 -0.319076 17.608765 2.010946 -0.138873 0.083432 -0.100018 -0.005618 0.165773 -0.078952 0.150401 -0.149101 -0.23814 7.760143 5.22947 0.451844 -0.098637 -0.03854 -0.071716 2.83573 0.946278 0.189901 -0.01412 0.046933 -0.172147 10.10007 0.838218 -0.173836 0.081595 0.179432 0.128266 2.183696 -0.754832 -0.209804 0.089874 -0.073265 0.06796 -66.1446 27.944395 -12.751897 15.428013 -8.690178 -29.498283 0.166393 9.019171 -1.270124 -0.146651 -0.076744 -0.081113 -0.18958 0.059644 -0.117782 0.200687 -0.092387 -0.121416 -7.537719 5.644312 -0.227086 -0.084193 -0.044714 -0.095787 -2.896177 0.987676 0.0017 -0.161966 -0.002716 -0.027885 -10.349135 0.653674 0.106553 0.224065 -0.059943 0.008918 -2.308075 -0.590502 0.111729 0.228226 -0.096647 0.142603 -7.336718 12.361279 -2.106132 -0.282788 33.981155 2.424149 -9.525441 -18.914312 -28.429623 -0.031477 -0.236791 0.148762 80.38784 -48.74261 68.023605 4.743976 78.0925 -4.027676 -1.602588 -5.488512 -7.670432
-1.542501 0.470034 13.815301 -20.661032 -26.662897 11.685555 17.018814 10.487432 12.825026 -1.391108 -6.924173 3.487458 -2.193944 14.477822 2.514239 6.130346 -25.200396 6.204598 -0.049908 0.232516 -0.121901 0.175156 -0.086506 -0.056379 -0.057392 -0.123644 -0.093037 69.31083 44.61094 -10.949292 -21.599606 -16.055216 43.97936 -0.296761 17.622982 2.017161 -0.139987 0.08534 -0.097745 -0.008166 0.159514 -0.080856 0.143732 -0.149262 -0.238552 7.762138 5.221053 0.453659 -0.100801 -0.031922 -0.07158 2.830387 0.945016 0.194041 -0.018316 0.042975 -0.169301 10.102277 0.838484 -0.176586 0.07192 0.178963 0.130547 2.177978 -0.755264 -0.213668 0.0908 -0.08019 0.066078 -66.29603 27.83029 -12.607913 15.400247 -8.633827 -29.382822 0.161183 9.044802 -1.259472 -0.150514 -0.064406 -0.077753 -0.183656 0.063901 -0.120975 0.205271 -0.088851 -0.122593 -7.541838 5.635186 -0.235348 -0.084439 -0.045166 -0.089503 -2.90182 0.98566 -0.002563 -0.170274 -0.003956 -0.023671 -10.352707 0.65113 0.093428 0.221111 -0.064294 0.013053 -2.304598 -0.589897 0.113449 0.23161 -0.099291 0.140491 -7.218174 12.246564 -2.221561 -0.28744 34.206833 2.435832 -9.591452 -18.978565 -28.443863 -0.026003 -0.233801 0.144854 80.42884 -48.90947 67.97433 4.732 78.14695 -4.020544 -1.593607 -5.543172 -7.763282
-1.354398 0.467561 13.900706 -20.663498 -26.584385 11.690701 16.999607 10.435584 12.755973 -1.381762 -6.923526 3.46446 -2.203718 14.457115 2.512855 6.152049 -25.175066 6.208214 -0.039334 0.233781 -0.117512 0.177087 -0.086919 -0.053304 -0.053017 -0.127406 -0.095037 69.495056 44.53045 -11.211172 -21.607264 -16.100954 44.06843 -0.271003 17.638231 2.026601 -0.141205 0.086841 -0.096099 -0.01054 0.153225 -0.081492 0.136383 -0.149617 -0.237992 7.763998 5.213696 0.45413 -0.102164 -0.024807 -0.072724 2.825796 0.943844 0.19861 -0.023128 0.039904 -0.166571 10.104184 0.838746 -0.179171 0.062116 0.178291 0.133278 2.172735 -0.755862 -0.218205 0.09059 -0.088117 0.064105 -66.446945 27.722683 -12.465145 15.367492 -8.576774 -29.260345 0.155852 9.082815 -1.25063 -0.153558 -0.053331 -0.074003 -0.177891 0.067551 -0.125063 0.209199 -0.085617 -0.1234 -7.544796 5.627251 -0.242804 -0.085953 -0.046459 -0.084416 -2.906983 0.983297 -0.008045 -0.178252 -0.00548 -0.020589 -10.354779 0.64873 0.079897 0.217799 -0.068796 0.016904 -2.301228 -0.590338 0.115426 0.234053 -0.103171 0.137942 -7.110462 12.127357 -2.341495 -0.293307 34.435024 2.447619 -9.655931 -19.04706 -28.447542 -0.019923 -0.23098 0.14106 80.452415 -49.070583 67.90814 4.719078 78.19267 -4.010803 -1.588011 -5.598684 -7.851906
-1.166132 0.465725 13.985311 -20.664545 -26.519672 11.691578 16.977903 10.386134 12.685318 -1.371032 -6.923044 3.440431 -2.217776 14.438379 2.505448 6.176717 -25.139526 6.200566 -0.029127 0.235817 -0.113103 0.178183 -0.085997 -0.05006 -0.048466 -0.132465 -0.097236 69.70291 44.451275 -11.491786 -21.611835 -16.147566 44.15681 -0.242484 17.654243 2.038888 -0.142467 0.087921 -0.095066 -0.012727 0.147103 -0.080896 0.128488 -0.150202 -0.236489 7.765782 5.207552 0.453208 -0.102654 -0.017332 -0.075092 2.821987 0.942724 0.203601 -0.028574 0.037752 -0.164007 10.105815 0.838978 -0.18149 0.052416 0.177394 0.136413 2.168038 -0.75662 -0.223346 0.089242 -0.096864 0.062097 -66.59594 27.621967 -12.325051 15.330426 -8.52034 -29.133615 0.150728 9.131518 -1.244122 -0.155752 -0.043689 -0.070079 -0.172447 0.070565 -0.129966 0.212495 -0.082729 -0.123835 -7.546527 5.620628 -0.249264 -0.088667 -0.048582 -0.080669 -2.911618 0.980585 -0.014653 -0.185725 -0.007355 -0.01869 -10.355293 0.64652 0.066169 0.214228 -0.073362 0.020424 -2.298012 -0.5919 0.117659 0.235505 -0.108152 0.13504 -7.013626 12.006013 -2.464974 -0.300528 34.66181 2.459595 -9.718743 -19.119753 -28.44144 -0.013358 -0.228286 0.137459 80.46134 -49.224575 67.82901 4.706258 78.23113 -3.999548 -1.58622 -5.655518 -7.935272
-0.97776 0.464535 14.069427 -20.663933 -26.468246 11.690347 16.95482 10.338607 12.61365 -1.359284 -6.922704 3.415588 -2.235888 14.421897 2.492282 6.203878 -25.093842 6.182005 -0.019438 0.238605 -0.108701 0.178394 -0.083778 -0.046688 -0.043805 -0.138727 -0.099555 69.930695 44.373962 -11.786691 -21.613394 -16.19412 44.242634 -0.211953 17.670628 2.053565 -0.143727 0.088595 -0.094634 -0.01472 0.141335 -0.079131 0.120207 -0.151006 -0.23409 7.767544 5.202713 0.450887 -0.102226 -0.009631 -0.078595 2.818963 0.941623 0.208958 -0.03466 0.036512 -0.161658 10.107171 0.839157 -0.183449 0.043052 0.176251 0.139913 2.16397 -0.757536 -0.22903 0.086773 -0.106218 0.060095 -66.74196 27.528294 -12.189106 15.289816 -8.465761 -29.0054 0.146099 9.18906 -1.240384 -0.157096 -0.03564 -0.06621 -0.167468 0.072937 -0.135589 0.215207 -0.080224 -0.123906 -7.547046 5.615392 -0.254578 -0.092493 -0.051498 -0.078342 -2.915673 0.97755 -0.022262 -0.192522 -0.009641 -0.017988 -10.354244 0.644517 0.052461 0.210524 -0.077921 0.023602 -2.294998 -0.594615 0.120111 0.235957 -0.114103 0.131877 -6.927546 11.884829 -2.590862 -0.309191 34.883568 2.471815 -9.779812 -19.196527 -28.426426 -0.006431 -0.225686 0.134122 80.45868 -49.370308 67.74091 4.694442 78.26395 -3.987779 -1.588435 -5.714024 -8.012454
-0.789234 0.463974 14.153316 -20.66127 -26.429222 11.689078 16.931376 10.292429 12.541495 -1.346868 -6.922497 3.390163 -2.257732 14.40788 2.473726 6.232949 -25.03853 6.153045 -0.010426 0.2421 -0.104349 0.177681 -0.080332 -0.04322 -0.039099 -0.146077 -0.101917 70.17494 44.29883 -12.091115 -21.612057 -16.239647 44.324135 -0.180237 17.687086 2.070114 -0.144942 0.088883 -0.094761 -0.016509 0.136104 -0.076291 0.111711 -0.152034 -0.230875 7.769304 5.199246 0.447189 -0.100854 -0.001852 -0.083123 2.816723 0.940516 0.214608 -0.041368 0.036169 -0.159557 10.108212 0.839267 -0.184973 0.034249 0.174857 0.143737 2.160568 -0.758597 -0.235195 0.083236 -0.115959 0.058156 -66.88394 27.441694 -12.058631 15.246523 -8.414155 -28.878405 0.142215 9.253436 -1.239798 -0.15761 -0.029307 -0.062596 -0.163083 0.074673 -0.141822 0.217397 -0.078141 -0.123633 -7.54635 5.611604 -0.258621 -0.097309 -0.055133 -0.077472 -2.919111 0.97422 -0.030735 -0.198512 -0.012371 -0.018457 -10.351663 0.642733 0.038968 0.206808 -0.082383 0.026431 -2.292219 -0.598491 0.122743 0.235408 -0.120871 0.128534 -6.851901 11.765993 -2.717887 -0.319353 35.096844 2.48429 -9.839057 -19.277176 -28.403444 0.000716 -0.22314 0.131113 80.44727 -49.507202 67.64812 4.684378 78.2924 -3.976359 -1.59469 -5.774384 -8.082588
-0.600425 0.46399 14.237179 -20.656456 -26.40151 11.689536 16.908506 10.247086 12.469407 -1.334097 -6.922404 3.364381 -2.282932 14.396419 2.450241 6.263329 -24.974106 6.114358 -0.002223 0.246216 -0.100104 0.176049 -0.075735 -0.039677 -0.034417 -0.154381 -0.104237 70.43171 44.226032 -12.400073 -21.608007 -16.283306 44.399494 -0.148227 17.703085 2.087999 -0.146101 0.088814 -0.095419 -0.018106 0.131556 -0.072494 0.103166 -0.153245 -0.226954 7.771098 5.197166 0.442182 -0.098544 0.005864 -0.088546 2.815242 0.939388 0.220451 -0.048684 0.036685 -0.157732 10.108946 0.839289 -0.185985 0.026234 0.173213 0.147875 2.15788 -0.75979 -0.241773 0.078726 -0.125863 0.056324 -67.02037 27.362066 -11.93484 15.201479 -8.366535 -28.755169 0.139279 9.322721 -1.242627 -0.157338 -0.02478 -0.059429 -0.159403 0.075796 -0.148529 0.219118 -0.076493 -0.12304 -7.54453 5.609288 -0.261318 -0.102977 -0.059396 -0.078098 -2.921891 0.970656 -0.039905 -0.203586 -0.015562 -0.020028 -10.347639 0.641163 0.025875 0.203199 -0.086683 0.028946 -2.289701 -0.603486 0.125513 0.233891 -0.128319 0.125101 -6.786181 11.651472 -2.844692 -0.330989 35.298595 2.497002 -9.896431 -19.361391 -28.373705 0.007937 -0.220612 0.128497 80.429825 -49.634655 67.554344 4.676724 78.31761 -3.966087 -1.604817 -5.836647 -8.144903
-0.411129 0.464507 14.321165 -20.649336 -26.383728 11.693206 16.887098 10.202003 12.397874 -1.321243 -6.922439 3.338452 -2.311065 14.387594 2.422368 6.294396 -24.901478 6.066746 0.005053 0.250834 -0.096034 0.173537 -0.070085 -0.036067 -0.029831 -0.163488 -0.106412 70.6965 44.155502 -12.708641 -21.601385 -16.324154 44.467285 -0.116775 17.71809 2.106625 -0.147182 0.088419 -0.096553 -0.019518 0.127806 -0.067885 0.094756 -0.154594 -0.222445 7.772978 5.196456 0.435954 -0.095332 0.01339 -0.09471 2.814456 0.93823 0.226385 -0.056563 0.038004 -0.1562 10.109386 0.839227 -0.186436 0.019184 0.17135 0.1523 2.155903 -0.761096 -0.248704 0.073346 -0.135699 0.054628 -67.1506 27.289051 -11.818952 15.15556 -8.323692 -28.637886 0.137447 9.395103 -1.249094 -0.156351 -0.022109 -0.056859 -0.156515 0.076332 -0.155577 0.220443 -0.075322 -0.122172 -7.541638 5.608441 -0.262628 -0.109336 -0.064176 -0.080165 -2.923976 0.966912 -0.049604 -0.207669 -0.019212 -0.022613 -10.34226 0.639782 0.013345 0.199823 -0.090757 0.031183 -2.287464 -0.609517 0.128346 0.231455 -0.136312 0.12165 -6.729698 11.542981 -2.969892 -0.344032 35.486137 2.509867 -9.951914 -19.448786 -28.338451 0.015103 -0.218072 0.126332 80.408806 -49.752388 67.46305 4.671945 78.34062 -3.957609 -1.618451 -5.900722 -8.198632
-0.221113 0.465416 14.40538 -20.639847 -26.374296 11.701289 16.867954 10.156658 12.327305 -1.308554 -6.922652 3.312561 -2.341678 14.381339 2.390729 6.325536 -24.821526 6.011113 0.011311 0.255807 -0.09222 0.170212 -0.063493 -0.032391 -0.025422 -0.173239 -0.108361 70.96521 44.087315 -13.011885 -21.592455 -16.361427 44.525948 -0.086716 17.731565 2.125447 -0.14819 0.087738 -0.098114 -0.020762 0.124937 -0.062622 0.08663 -0.156036 -0.21749 7.774948 5.197036 0.42865 -0.091287 0.020594 -0.101461 2.814312 0.937036 0.232281 -0.064938 0.040034 -0.15497 10.109514 0.839072 -0.186289 0.013255 0.169288 0.157014 2.154657 -0.762498 -0.255934 0.067231 -0.145247 0.053096 -67.27337 27.22226 -11.711939 15.109689 -8.286249 -28.528587 0.136796 9.469058 -1.259289 -0.154733 -0.021309 -0.054998 -0.154468 0.07632 -0.162818 0.221426 -0.074635 -0.121069 -7.53779 5.608993 -0.262564 -0.116214 -0.069344 -0.083625 -2.925359 0.963068 -0.05966 -0.210726 -0.023286 -0.026075 -10.335704 0.638571 0.001514 0.196782 -0.094547 0.03319 -2.285525 -0.616465 0.131184 0.228174 -0.144722 0.118242 -6.68155 11.441973 -3.092108 -0.358338 35.65711 2.522783 -10.005496 -19.538818 -28.29901 0.022075 -0.215489 0.124669 80.38645 -49.860516 67.37711 4.670448 78.36234 -3.951504 -1.635056 -5.96636 -8.243088
